<svg
    viewBox="0 0 85 85"
    fill="none"
    xmlns="http://www.w3.org/2000/svg"
>
    <path
    d="M42.5 0C42.7098 5.63753 41.754 11.2577 39.6924 16.5089C37.6308 21.7602 34.5077 26.5295 30.5186 30.5186C26.5295 34.5077 21.7602 37.6307 16.5089 39.6923C11.2577 41.7539 5.63753 42.7097 0 42.5C5.63753 42.2902 11.2577 43.2461 16.5089 45.3077C21.7602 47.3693 26.5295 50.4923 30.5186 54.4814C34.5077 58.4705 37.6308 63.2398 39.6924 68.4911C41.754 73.7423 42.7098 79.3625 42.5 85C42.2903 79.3625 43.2461 73.7423 45.3077 68.4911C47.3693 63.2398 50.4923 58.4705 54.4814 54.4814C58.4705 50.4923 63.2398 47.3693 68.4911 45.3077C73.7423 43.2461 79.3625 42.2902 85 42.5C79.3625 42.7097 73.7423 41.7539 68.4911 39.6923C63.2398 37.6307 58.4705 34.5077 54.4814 30.5186C50.4923 26.5295 47.3693 21.7602 45.3077 16.5089C43.2461 11.2577 42.2903 5.63753 42.5 0Z"
    fill="#040499"
    />
</svg>
