<svg
    viewBox="0 0 150 150"
    fill="none"
    xmlns="http://www.w3.org/2000/svg"
>
    <path
    d="M75.0001 0C75.3702 9.94858 73.6835 19.8665 70.0453 29.1334C66.4072 38.4003 60.896 46.8168 53.8564 53.8564C46.8168 60.8959 38.4003 66.4072 29.1334 70.0453C19.8665 73.6834 9.94859 75.3701 0 75C9.94859 74.6299 19.8665 76.3166 29.1334 79.9547C38.4003 83.5928 46.8168 89.104 53.8564 96.1436C60.896 103.183 66.4072 111.6 70.0453 120.867C73.6835 130.133 75.3702 140.051 75.0001 150C74.6299 140.051 76.3166 130.133 79.9547 120.867C83.5928 111.6 89.104 103.183 96.1436 96.1436C103.183 89.1041 111.6 83.5928 120.867 79.9547C130.133 76.3166 140.051 74.6299 150 75C140.051 75.3701 130.133 73.6834 120.867 70.0453C111.6 66.4072 103.183 60.8959 96.1436 53.8564C89.104 46.8168 83.5928 38.4003 79.9547 29.1334C76.3166 19.8665 74.6299 9.94858 75.0001 0Z"
    fill="#040499"
    />
    <path
    d="M75.0001 0C75.3702 9.94858 73.6835 19.8665 70.0453 29.1334C66.4072 38.4003 60.896 46.8168 53.8564 53.8564C46.8168 60.8959 38.4003 66.4072 29.1334 70.0453C19.8665 73.6834 9.94859 75.3701 0 75C9.94859 74.6299 19.8665 76.3166 29.1334 79.9547C38.4003 83.5928 46.8168 89.104 53.8564 96.1436C60.896 103.183 66.4072 111.6 70.0453 120.867C73.6835 130.133 75.3702 140.051 75.0001 150C74.6299 140.051 76.3166 130.133 79.9547 120.867C83.5928 111.6 89.104 103.183 96.1436 96.1436C103.183 89.1041 111.6 83.5928 120.867 79.9547C130.133 76.3166 140.051 74.6299 150 75C140.051 75.3701 130.133 73.6834 120.867 70.0453C111.6 66.4072 103.183 60.8959 96.1436 53.8564C89.104 46.8168 83.5928 38.4003 79.9547 29.1334C76.3166 19.8665 74.6299 9.94858 75.0001 0Z"
    fill="#7051EB"
    />
</svg>
