<svg
    viewBox="0 0 138 138"
    fill="none"
    xmlns="http://www.w3.org/2000/svg"
>
    <path
    d="M68.551 0C68.8894 9.09314 67.3477 18.1583 64.0224 26.6283C60.6971 35.0984 55.6597 42.7912 49.2255 49.2255C42.7912 55.6597 35.0984 60.6971 26.6283 64.0224C18.1583 67.3476 9.09314 68.8894 0 68.551C9.09314 68.2127 18.1583 69.7544 26.6283 73.0797C35.0984 76.405 42.7912 81.4423 49.2255 87.8766C55.6597 94.3109 60.6971 102.004 64.0224 110.474C67.3477 118.944 68.8894 128.009 68.551 137.102C68.2127 128.009 69.7544 118.944 73.0797 110.474C76.405 102.004 81.4423 94.3109 87.8765 87.8766C94.3108 81.4423 102.004 76.405 110.474 73.0797C118.944 69.7544 128.009 68.2127 137.102 68.551C128.009 68.8894 118.944 67.3476 110.474 64.0224C102.004 60.6971 94.3108 55.6597 87.8765 49.2255C81.4423 42.7912 76.405 35.0984 73.0797 26.6283C69.7544 18.1583 68.2127 9.09313 68.551 0Z"
    fill="#C3A500"
    />
</svg>
