<svg width="180" height="180" viewBox="0 0 180 180" fill="none" xmlns="http://www.w3.org/2000/svg">
<g clip-path="url(#clip0_554_575)">
<rect width="180" height="180" rx="19" fill="url(#paint0_linear_554_575)"/>
<path d="M79.0759 23.786C85.4887 17.7315 95.5113 17.7315 101.924 23.786V23.786C105.796 27.4417 111.183 29.0236 116.417 28.0416V28.0416C125.085 26.4151 133.517 31.8338 135.638 40.3942V40.3942C136.919 45.5628 140.596 49.8063 145.53 51.8097V51.8097C153.701 55.1278 157.865 64.2448 155.021 72.5932V72.5932C153.304 77.6337 154.104 83.1915 157.171 87.5442V87.5442C162.251 94.7534 160.825 104.674 153.919 110.16V110.16C149.75 113.472 147.417 118.58 147.644 123.9V123.9C148.021 132.711 141.457 140.286 132.682 141.167V141.167C127.384 141.699 122.66 144.735 119.975 149.334V149.334C115.528 156.95 105.911 159.773 98.0524 155.771V155.771C93.3075 153.354 87.6925 153.354 82.9476 155.771V155.771C75.0888 159.773 65.4721 156.95 61.0249 149.334V149.334C58.3398 144.735 53.6162 141.699 48.3179 141.167V141.167C39.5427 140.286 32.9792 132.711 33.3555 123.9V123.9C33.5827 118.58 31.2502 113.472 27.0807 110.16V110.16C20.1751 104.674 18.7488 94.7534 23.8291 87.5442V87.5442C26.8965 83.1915 27.6956 77.6337 25.9787 72.5932V72.5932C23.1352 64.2447 27.2988 55.1278 35.4702 51.8097V51.8097C40.4039 49.8063 44.0809 45.5628 45.3618 40.3942V40.3942C47.4832 31.8338 55.9148 26.4151 64.5829 28.0416V28.0416C69.8165 29.0236 75.204 27.4417 79.0759 23.786V23.786Z" fill="white" fill-opacity="0.15"/>
<path d="M59.728 114.016C59.6 118.368 59.344 123.232 59.088 128.096C59.344 128.096 59.6 128.224 59.856 128.224C64.72 118.24 69.328 108 73.552 96.608C72.656 97.248 72.4 97.376 72.272 97.504C69.328 101.728 66.512 105.952 63.568 110.048C62.672 111.328 61.392 112.224 59.728 114.016ZM60.496 101.216C60.624 101.344 60.88 101.472 61.008 101.472C61.648 100.704 62.288 100.064 62.8 99.296C66 94.432 69.328 89.824 72.272 84.96C75.856 78.816 79.184 72.416 82.384 66.016C84.432 62.048 85.584 57.568 85.968 52.96C86.48 48.096 85.328 44 82 40.928C78.544 37.984 75.6 38.24 73.168 42.208C71.76 44.384 70.608 46.944 69.712 49.504C64.976 63.2 62.672 77.536 61.264 92C60.88 95.072 60.752 98.144 60.496 101.216ZM83.408 128.096C85.328 125.792 92.24 117.472 98.128 110.688C100.176 108.384 102.864 109.152 103.888 112.224C104.528 114.016 103.632 115.168 102.608 116.448C100.048 119.648 92.112 129.76 86.736 136.8C84.688 139.616 82.128 140.64 78.928 140.384C77.008 140.256 75.856 139.36 75.344 137.312C75.088 135.904 74.832 134.496 74.832 133.088C74.832 128.736 75.088 124.384 75.216 120.032C75.216 118.624 75.344 117.344 74.96 115.808C74.192 117.216 73.552 118.752 72.912 120.16C69.712 127.072 66.64 133.856 63.568 140.64C62.928 142.048 62.16 143.328 61.392 144.736C59.472 147.936 55.888 149.344 52.816 147.936C51.792 147.552 50.768 146.272 50.64 145.12C50.256 142.176 50 139.232 50 136.16C50.384 126.944 50.768 117.728 51.28 108.64C52.304 93.152 53.712 77.664 57.68 62.688C59.088 57.184 60.88 51.68 62.8 46.432C63.824 43.616 65.36 40.928 67.024 38.624C72.528 31.072 81.872 30.944 87.76 38.24C91.984 43.488 93.392 49.632 92.368 56.544C91.6 61.792 89.936 66.656 87.76 71.392C86.992 73.184 85.968 74.72 87.376 76.768C88.016 77.792 87.888 79.584 87.76 80.992C86.48 92 84.944 102.88 83.792 113.888C83.152 118.496 82.896 123.104 82.512 127.84C82.896 127.84 83.152 127.968 83.408 128.096ZM129.184 58.72C130.08 53.472 130.464 48.096 129.184 42.464C127.392 43.104 126.624 44.512 126.112 45.664C124.32 49.888 122.528 53.984 121.248 58.208C116.128 73.952 113.312 90.208 111.392 106.72C110.752 112.224 110.24 117.856 109.728 123.488C109.472 125.664 109.472 127.84 109.856 130.4C110.752 129.632 111.648 128.736 112.416 127.968C117.664 122.72 122.784 117.472 128.032 112.224C130.464 109.792 133.28 110.432 134.432 113.632C135.072 115.168 134.432 116.32 133.408 117.344C130.592 120.544 127.648 123.616 124.704 126.688C120.48 131.168 116.128 135.52 111.904 139.872C109.728 142.176 107.04 142.816 104.096 142.432C101.536 142.176 100.768 141.664 100.384 139.104C100.128 136.928 100 134.752 100 132.576C101.28 111.968 103.712 91.616 108.96 71.776C111.008 63.712 113.952 55.904 116.64 48.096C118.048 44.128 120.48 40.672 123.424 37.728C127.52 33.888 132.384 34.4 134.688 39.52C135.968 42.336 136.736 45.536 136.992 48.48C137.632 57.696 136.352 66.528 133.024 74.976C131.872 77.792 130.592 78.304 126.88 77.792C124.832 77.408 124.192 76.64 123.936 73.824C123.808 70.752 123.68 67.808 123.808 64.736C123.808 60.384 124.704 59.36 129.184 58.72Z" fill="white"/>
</g>
<defs>
<linearGradient id="paint0_linear_554_575" x1="217" y1="269.5" x2="-21.5" y2="-32.5" gradientUnits="userSpaceOnUse">
<stop stop-color="#040593"/>
<stop offset="1" stop-color="#5858B7"/>
</linearGradient>
<clipPath id="clip0_554_575">
<rect width="180" height="180" fill="white"/>
</clipPath>
</defs>
</svg>
